<?xml version="1.0" standalone="no"?><!DOCTYPE svg PUBLIC "-//W3C//DTD SVG 1.1//EN" "http://www.w3.org/Graphics/SVG/1.1/DTD/svg11.dtd"><svg t="1755672504605" class="icon" viewBox="0 0 3194 1024" version="1.1" xmlns="http://www.w3.org/2000/svg" p-id="4888" xmlns:xlink="http://www.w3.org/1999/xlink" width="623.828125" height="200"><path d="M1597.44 870.4c-203.59168 0-368.64-165.04832-368.64-368.64s165.04832-368.64 368.64-368.64 368.64 165.04832 368.64 368.64-165.04832 368.64-368.64 368.64z m186.59328-409.6l-209.34656 0.01024c-10.05568 0-18.20672 8.15104-18.20672 18.19648l-0.02048 45.5168c0 10.05568 8.1408 18.20672 18.19648 18.20672h127.45728c10.05568 0 18.20672 8.1408 18.20672 18.19648v9.10336A54.60992 54.60992 0 0 1 1665.71008 624.64h-172.9536a18.20672 18.20672 0 0 1-18.20672-18.19648V433.50016a54.60992 54.60992 0 0 1 54.60992-54.60992L1783.98208 378.88c10.05568 0 18.19648-8.1408 18.20672-18.19648L1802.24 315.1872A18.20672 18.20672 0 0 0 1784.03328 296.96l-254.86336 0.01024c-75.39712 0-136.52992 61.1328-136.52992 136.52992v254.85312c0 10.05568 8.15104 18.20672 18.20672 18.20672H1679.36c67.87072 0 122.88-55.00928 122.88-122.88V479.00672c0-10.04544-8.15104-18.19648-18.20672-18.19648z" fill="#C71D23" p-id="4889"></path></svg>