<?xml version="1.0" standalone="no"?><!DOCTYPE svg PUBLIC "-//W3C//DTD SVG 1.1//EN" "http://www.w3.org/Graphics/SVG/1.1/DTD/svg11.dtd"><svg t="1755415236386" class="icon" viewBox="0 0 1024 1024" version="1.1" xmlns="http://www.w3.org/2000/svg" p-id="1525" xmlns:xlink="http://www.w3.org/1999/xlink" width="200" height="200"><path d="M841.483489 891.050522c-11.560824 0-23.121648 0.018064-34.682473-0.018064-2.583122 0-5.238498 0.162574-7.333898-1.86057-0.198702-0.180638-0.505786-0.343212-0.776743-0.343212-6.502964-0.37934-12.048546-3.703076-17.901213-5.979113-4.299181-1.661868-8.652554-3.341801-12.59046-5.67203-9.049958-5.383009-17.88315-11.127293-26.553768-17.124471-12.9698-8.977703-24.620943-19.526955-36.615298-29.696867-19.74372-16.763195-37.735253-35.332769-55.347446-54.245554-11.307931-12.138865-22.435224-24.476432-33.472198-36.904319-6.141688-6.900367-12.174993-13.909117-18.172171-20.93593-2.366356-2.781823-5.29269-4.895286-8.002258-7.279706-6.864239-5.997178-13.294948-12.409822-19.111487-19.4547-3.775332-4.570138-8.399661-8.291279-12.9698-12.06661-5.690093-4.696585-11.488569-9.248659-17.684448-13.204629-6.791984-4.335309-12.879481-9.790573-20.375953-13.078182-2.276037-0.993508-4.552075-1.824443-7.026813-1.987017a60.441434 60.441434 0 0 1-9.844765-1.427039c-4.064352-0.957381-6.521027 0.758679-6.936494 4.877223-0.325148 3.287609-0.270957 6.62941-0.252893 9.953147 0.036128 3.522439-0.650296 6.846176-1.842506 10.169912-1.517358 4.208863-2.890206 8.48998-3.992097 12.82529-1.517358 5.906859-4.552075 11.199548-6.593283 16.907705-1.33672 3.757268-3.088908 7.695174-5.81654 11.000847-1.806379 2.167655-3.034716 4.91335-4.118543 7.568727-3.414056 8.381598-8.833192 15.49873-13.945244 22.7965-2.980525 4.24499-6.250071 8.309342-8.959639 12.73497-1.824443 2.980525-3.829523 5.798476-6.250071 8.291279-9.266723 9.53768-17.250917 20.195315-26.210556 30.003951-11.705334 12.807226-23.609371 25.361558-36.741744 36.741745-0.975445 0.848998-1.932825 1.752187-2.817951 2.691504-2.691504 2.872142-5.852667 4.985605-9.338978 6.900367-10.747954 5.888795-21.550099 11.705334-32.587073 17.016088-11.181485 5.383009-21.911375 11.651143-33.038668 17.142535-3.359865 1.661868-6.77392 3.233418-10.20604 4.750776-5.003669 2.221846-7.911939 1.679932-11.705335-2.185719-2.926334-2.980525-5.81654-6.033305-8.616426-9.122212-2.294101-2.510866-2.113463-4.425628 0.397403-6.665538 1.318657-1.174146 2.90827-1.86057 4.497883-2.52893 6.77392-2.872142 13.240756-6.412645 19.635337-10.043466 2.76376-1.57155 5.690093-2.781823 8.489981-4.299182 9.411233-5.093988 18.280553-11.018911 27.04149-17.124471 15.78775-11.000847 30.654248-23.193903 44.11177-36.940446 11.109229-11.344059 21.784928-23.139712 31.214225-35.946937 5.220435-7.081005 10.422806-14.288456 14.559413-22.019757 6.051369-11.307931 12.789162-22.290714 17.50381-34.303133 1.842506-4.696585 4.136607-9.212532 6.394581-13.746543 1.354784-2.727632 2.655377-5.401073 2.90827-8.526108 0.090319-1.101891 0.704488-2.203782 1.282529-3.19729 1.463167-2.52893 2.619249-5.14818 2.727632-8.128705 0.018064-0.415467 0.108383-0.885126 0.307084-1.264465 2.709568-5.166243 3.685013-10.8744 5.29269-16.401919 0.957381-3.323737 2.131527-6.557155 2.438611-10.043466 0.198702-2.312165 1.029636-4.497883 1.770251-6.683601 1.589613-4.660457 2.998589-9.338978 3.125036-14.342648 0.036128-1.427039 0.234829-2.926334 0.740615-4.24499 3.088908-8.110641 3.775332-16.564493 3.757268-25.126729 0-0.578041 0-1.174146 0.162574-1.71606 2.131527-6.846176 1.625741-14.053627 2.799887-21.008185 1.499294-8.887384 1.408975-17.865086 1.589613-26.788597 0.270957-13.421394 0.018064-26.860852-0.018063-40.30031 0-0.578041-0.108383-1.19221 0.072255-1.71606 1.481231-4.299181 1.553486-8.435789-0.975445-12.464014-0.614169-0.975445-0.216765-2.257973 0.180638-3.377928 2.00508-5.58171 1.210274-11.055038-0.596105-16.492238-1.445103-4.371437-2.546994-8.815128-4.804967-12.951736-4.895286-8.977703-11.199548-16.401919-20.556591-20.917866-0.758679-0.361276-1.427039-0.975445-2.113463-1.481231-3.95597-2.872142-7.062941-2.492803-10.151849 1.210274-4.082416 4.91335-7.29777 10.386678-10.531188 15.860005-6.810048 11.560824-13.583968 23.139712-21.044313 34.303133-0.162574 0.234829-0.37934 0.451595-0.469658 0.722552-3.775332 10.007338-11.018911 17.865086-16.438047 26.842788-8.797065 14.559413-17.558002 29.13689-26.37313 43.696303-1.806379 2.980525-3.034716 6.232007-4.389501 9.411233-0.939317 2.203782-0.596105 4.534011 0.180638 6.791985 1.011572 2.90827 2.438611 5.653966 4.606266 7.785492 6.412645 6.34039 11.344059 13.800734 16.672876 20.990122 5.834603 7.857748 13.764606 13.511713 21.694609 19.057296 2.203782 1.535422 4.877223 1.679932 7.496472 1.770251 2.601185 0.090319 5.220435 0 7.785493 0.270957 5.708157 0.596105 8.995766 3.739204 10.856336 9.122212 2.492803 7.207451 3.305673 14.360711 0.559978 21.604291-4.118544 10.856336-10.422806 20.104996-21.116568 25.32543-5.274626 2.565058-11.073102 4.136607-16.925769 5.093988-2.854078 0.469658-5.744285 0.614169-8.598363 1.029636-9.140277 1.318657-15.281964-3.341801-19.761784-10.458933-2.583122-4.10048-5.021733-8.508044-5.057861-13.656224 0-0.289021-0.054191-0.596105-0.198701-0.830934-3.19729-5.852667-3.829523-12.265312-4.371437-18.750212-0.180638-2.276037-0.704488-4.62433-1.535422-6.755856-3.359865-8.688682-3.630821-17.720576-3.468247-26.842789 0.036128-1.57155-0.397403-3.161163-0.415467-4.732712-0.036128-3.666949-3.57663-6.177815-6.358454-6.719729-3.305673-0.650296-6.846176 0.686424-8.48998 3.847587-3.937906 7.604855-10.368614 13.078182-16.058707 19.165678-5.81654 6.232007-11.488569 12.572396-16.582557 19.364381-9.176404 12.247248-18.352808 24.476432-28.016935 36.344341-1.264465 1.553486-2.76376 2.962461-4.335309 4.24499-2.131527 1.752187-4.263054 3.522439-5.942986 5.672029-6.647474 8.417725-14.577477 15.589049-22.073949 23.193904-6.521027 6.611346-14.324584 11.687271-21.134632 17.919277-9.718318 8.923511-21.026249 15.769687-31.033587 24.259667a176.999831 176.999831 0 0 1-24.639007 17.576066c-1.481231 0.867062-3.088908 1.553486-4.696584 2.221846-0.81287 0.325148-1.788315 0.343212-2.38442-0.451595-0.632233-0.81287-0.162574-1.661868 0.28902-2.402484 2.312165-3.865651 4.985605-7.496472 8.309343-10.513124 8.905447-8.092577 16.16709-17.684448 24.602878-26.210556 7.731301-7.803556 14.432966-16.510302 21.550099-24.855772 10.224104-11.976291 20.719165-23.663562 31.268417-35.350833 5.419136-5.997178 9.194468-13.276884 14.432966-19.472763 2.890206-3.43212 6.159752-6.4849 9.158341-9.808637 6.10556-6.755857 12.012419-13.674287 16.853514-21.405588 3.486311-5.545583 8.34547-9.935083 12.409822-15.011008 3.811459-4.750776 6.972622-9.862828 9.736381-15.300028 3.739204-7.333898 8.327406-14.16201 13.403331-20.664973 5.075924-6.4849 9.194468-13.602032 13.132374-20.809484 3.450183-6.34039 7.15326-12.572396 10.061529-19.147615 6.268134-14.180073 14.505222-27.294383 21.568163-41.022862 1.517358-2.926334 3.414056-5.708157 5.419136-8.34547 5.58171-7.406153 10.278295-15.281964 13.963308-23.826136 2.962461-6.864239 6.539091-13.457522 9.862828-20.159187 0.198702-0.397403 0.505786-0.758679 0.559978-1.156082 0.921253-6.213943 4.931414-11.000847 7.604854-16.40192 1.19221-2.420548 1.86057-4.823031 1.535422-7.496472-0.289021-2.294101-0.487722-4.606266-0.921253-6.864239-0.614169-3.287609-2.059272-4.407564-5.401072-4.281118-2.474739 0.108383-4.877223 0.650296-7.044878 1.896698-5.473328 3.106971-11.307931 5.112052-17.64832 5.455264-0.722552 0.036128-1.499294 0.054191-2.131527 0.325148-9.465425 4.064352-20.213378 3.070844-29.570421 7.568727-2.890206 1.390912-6.159752 1.445103-9.357042 1.445103-1.932825 0-3.666949-0.614169-5.238498-1.770251-1.390912-1.029636-2.781823-2.185718-4.534011-2.474739-9.15834-1.57155-17.341236-6.087496-26.22862-8.48998-3.05278-0.830934-5.057861-2.655377-5.690093-5.852667-0.921253-4.497883 1.138019-7.893875 5.726221-8.399662 9.772509-1.083827 19.07536-4.750776 28.956252-5.256562 1.878634-0.090319 3.703076-0.776743 5.346881-1.697996 3.377928-1.896698 6.972622-2.691504 10.802145-2.727632 2.781823-0.036128 5.455264-0.66836 7.893875-2.059272 2.438611-1.390912 5.039797-2.113463 7.803556-2.402484 3.179227-0.325148 6.268134-1.0477 9.104149-2.601185 0.758679-0.415467 1.589613-0.740615 2.420548-0.939317 10.314423-2.438611 19.779848-7.171324 29.498165-11.163421 14.288456-5.852667 26.355066-15.083263 35.639854-27.402766 3.775332-5.003669 5.96105-11.217612 6.484899-17.684448 0.307084-3.775332 0.975445-7.424217 2.203783-11.000847 0.596105-1.752187 1.011572-3.648885 1.119954-5.491391 0.289021-4.714649 1.643805-9.068021 3.793396-13.222693 0.867062-1.661868 1.71606-3.414056 1.824442-5.29269 0.307084-5.401073 1.57155-10.549252 3.594694-15.552921 0.37934-0.921253 0.614169-1.950889 0.704488-2.944397 0.487722-5.328817 2.095399-10.314423 3.703076-15.408411 1.643805-5.202371 2.041208-10.910528 3.395992-16.347728 0.830934-3.359865-1.210274-6.77392-1.589613-10.187976-0.794807-7.207451-3.034716-13.981372-5.328817-20.755293-0.270957-0.81287-0.397403-1.71606-0.794807-2.474738-6.539091-12.373695-11.596952-25.488005-19.183743-37.319786-2.836015-4.425628-2.637313-6.159752 0.848998-9.953147 2.637313-2.872142 5.653966-5.364945 7.930003-8.580299 1.264465-1.788315 7.315834-2.438611 8.815129-0.686424 2.854078 3.377928 6.954558 4.642393 10.513124 6.647474 10.169913 5.726221 18.262489 13.674287 25.271239 22.742309 2.673441 3.450183 4.804968 7.460344 6.195879 11.795653 1.318657 4.10048 3.269546 8.020322 4.985606 11.994355 0.632233 1.481231 1.119955 2.980525 1.282529 4.570138 1.156082 11.109229 0.758679 22.218459-0.14451 33.327689-0.054191 0.578041-0.108383 1.174146-0.325149 1.697996-3.377928 7.911939-3.034716 16.401919-3.811459 24.711261-0.541914 5.780412-2.276037 11.325995-3.106971 17.034152-0.307084 2.149591-1.0477 4.263054-1.0477 6.394581 0 7.279706-1.697996 14.30652-2.727632 21.441716-0.270957 1.86057-0.830934 3.648885-1.372848 5.455264-1.806379 5.870731 1.734124 10.260231 7.785493 9.519616 3.992097-0.487722 7.785493-1.517358 11.578888-3.233418 7.460344-3.395992 14.776178-7.243579 22.706181-9.573807 3.341801-0.993508 6.195879-2.980525 9.411233-4.299182 8.779001-3.630821 17.828959-6.448772 26.499577-10.404742 10.368614-4.714649 21.152695-8.48998 31.66582-12.897544 6.10556-2.546994 11.976291-5.635902 18.02766-8.309342 4.606266-2.023144 9.284787-3.937906 14.035563-5.581711 5.527519-1.932825 10.747954-0.66836 15.805814 2.059272 6.593283 3.540502 13.385267 6.719729 19.942422 10.35055 5.81654 3.215354 10.675699 7.388089 12.174993 14.396839 1.0477 4.931414-0.596105 8.182896-4.985605 10.784082-5.021733 2.980525-10.802145 4.028225-15.860006 6.864239-1.679932 0.939317-3.666949 0.722552-5.527519 0.776743-2.366356 0.054191-4.570138 0.559977-6.466836 2.095399-1.987017 1.607677-4.371437 2.185718-6.882303 2.257974-3.522439 0.108383-6.864239 0.885126-10.007339 2.510866-2.203782 1.138019-4.660457 1.697996-7.099068 1.86057-7.026813 0.469658-13.511713 2.962461-20.104996 5.093988-2.890206 0.939317-5.762348 1.878634-8.760937 2.402484-4.010161 0.686424-7.803556 1.987017-11.596952 3.468247-5.220435 2.059272-10.856336 2.944397-16.058707 5.202371-9.429297 4.082416-19.255998 6.918431-29.173017 9.627999-8.074513 2.203782-15.769687 5.635902-23.573243 8.670618-8.616427 3.341801-17.250917 6.611346-25.41575 11.000847-11.904036 6.412645-20.430144 15.896133-25.903471 28.143381-1.697996 3.793395-2.637313 7.893875-4.263054 11.77759-2.041208 4.859159 0.740615 9.573808 5.924922 11.109229 2.38442 0.704488 4.877223 0.487722 7.29777 0.794807 13.186565 1.589613 24.855772 6.376517 33.634773 16.745131 3.269546 3.865651 5.4372 8.48998 6.791984 13.421395 0.307084 1.119955 0.397403 2.366356 1.011572 3.305673 2.745696 4.208863 3.125035 8.887384 3.269546 13.710415 0.180638 6.62941 0.596105 13.25882 0.505786 19.924358-0.198702 14.577477-0.289021 29.173017-0.090319 43.768557 0.14451 10.224104 0.541914 20.448208 0.307084 30.690376-0.090319 4.335309-0.541914 8.616427-0.95738 12.933672-0.776743 8.056449-0.433531 15.986452 2.637313 23.826136 3.034716 7.749365 8.20096 13.367203 14.487158 18.388936 3.829523 3.070844 7.351962 6.502964 10.63957 10.151848 2.312165 2.583122 4.678521 5.112052 7.370026 7.333898 10.025402 8.255151 19.924358 16.672876 29.967824 24.928027 12.482077 10.260231 24.620943 20.972058 37.644933 30.545865 12.861417 9.465425 23.862264 20.93593 35.965002 31.214226 14.414903 12.229184 28.649167 24.693198 44.78013 34.736663 3.43212 2.149591 6.430708 4.877223 9.519616 7.478409 9.609935 8.146768 20.032741 15.137454 30.907141 21.477843 9.122213 5.310754 18.407 10.260231 28.215636 14.216201 5.093988 2.059272 9.754445 5.039797 14.396839 7.948067 7.514536 4.696585 15.805814 7.767429 23.826136 11.362122 4.877223 2.185718 9.880892 4.064352 14.487158 6.810048 1.517358 0.885126 3.305673 1.138019 4.804967 1.896698 6.990686 3.522439 14.848434 4.461756 21.929439 7.659046 0.921253 0.415467 1.86057 0.848998 2.836014 1.083827 8.20096 1.914762 15.841942 5.455264 23.69969 8.309343 5.527519 2.00508 11.199548 3.811459 16.347728 6.810048 0.487722 0.289021 1.029636 0.578041 1.571549 0.704487 8.923511 2.077336 16.004516 7.622918 23.446797 12.464014 2.52893 1.643805 4.750776 3.739204 7.099068 5.653965 0.325148 0.270957 0.758679 0.578041 0.848998 0.939317 0.903189 3.992097 1.770251 8.48998-0.270956 11.813718-1.824443 2.980525-3.901778 6.376517-7.442281 8.200959-6.611346 3.43212-12.807226 7.875811-20.664973 8.146769-2.041208 0.072255-4.010161 0.52385-5.708157 1.788314-1.390912 1.029636-3.05278 0.776743-4.606266 0.794807-11.849845 0.036128-23.69969 0.018064-35.549534 0.018064 0.018064-0.090319 0.018064-0.054191 0.018064-0.018064z" p-id="1526" fill="#f0940d"></path><path d="M675.061812 488.209992c-0.37934 12.174993-4.118544 22.868755-14.035563 30.726502-5.455264 4.317245-10.242168 9.284787-14.721987 14.613605-2.492803 2.980525-5.166243 5.888795-8.20096 8.309342-8.941575 7.15326-16.745131 15.462602-24.873835 23.46486-6.177815 6.069433-12.229184 12.247248-18.948914 17.774768-3.57663 2.926334-7.171324 5.708157-11.289867 7.948066-3.901778 2.113463-7.839684 2.709568-12.102738 2.312165-2.583122-0.234829-4.660457-1.300593-6.322326-3.305673-2.565058-3.125035-5.238498-6.141688-7.803556-9.266723-2.52893-3.070844-2.492803-5.346881 0.632233-7.803557 4.91335-3.829523 8.995766-8.544172 13.728478-12.554332 3.612758-3.070844 5.4372-7.442281 7.767429-11.380186 5.653966-9.555744 11.127293-19.21987 16.275473-29.082699 4.642393-8.905447 8.074513-18.280553 10.097657-28.034998 3.685013-17.810895 7.460344-35.585662 11.940164-53.215919 0.361276-1.390912 0.541914-2.836015 0.794807-4.263054 1.427039-7.857748 8.20096-11.795653 16.275472-9.989274 1.788315 0.397403 3.070844 1.57155 4.172735 2.926333 3.269546 4.028225 6.502964 8.092577 9.320915 12.482078 0.307084 0.487722 0.578041 1.011572 0.939317 1.463166 6.394581 8.182896 12.807226 16.347728 19.237934 24.51256 0.885126 1.119955 2.095399 2.059272 2.492802 3.486311 1.71606 6.232007 5.057861 12.06661 4.62433 18.876659z" p-id="1527" fill="#f0940d"></path></svg>